<?xml version="1.0" encoding="UTF-8" standalone="no"?>
<!-- Created with Inkscape (http://www.inkscape.org/) -->

<svg
   width="33.866665mm"
   height="33.866665mm"
   viewBox="0 0 33.866665 33.866665"
   version="1.1"
   id="svg5"
   inkscape:version="1.1.1 (3bf5ae0, 2021-09-20)"
   sodipodi:docname="xfce4-kind-plugin.svg"
   xmlns:inkscape="http://www.inkscape.org/namespaces/inkscape"
   xmlns:sodipodi="http://sodipodi.sourceforge.net/DTD/sodipodi-0.dtd"
   xmlns="http://www.w3.org/2000/svg"
   xmlns:svg="http://www.w3.org/2000/svg">
  <sodipodi:namedview
     id="namedview7"
     pagecolor="#505050"
     bordercolor="#eeeeee"
     borderopacity="1"
     inkscape:pageshadow="0"
     inkscape:pageopacity="0"
     inkscape:pagecheckerboard="0"
     inkscape:document-units="mm"
     showgrid="false"
     inkscape:zoom="4.4352647"
     inkscape:cx="63.366384"
     inkscape:cy="63.45808"
     inkscape:window-width="1358"
     inkscape:window-height="738"
     inkscape:window-x="4"
     inkscape:window-y="26"
     inkscape:window-maximized="1"
     inkscape:current-layer="layer1"
     fit-margin-top="0"
     fit-margin-left="0"
     fit-margin-right="0"
     fit-margin-bottom="0"
     inkscape:snap-global="false" />
  <defs
     id="defs2">
    <inkscape:path-effect
       effect="fillet_chamfer"
       id="path-effect30462"
       is_visible="true"
       lpeversion="1"
       satellites_param="C,0,0,1,0,0,0,12 @ C,0,0,1,0,0,0,12 @ C,0,0,1,0,0,0,12 @ C,0,0,1,0,0,0,12"
       unit="px"
       method="auto"
       mode="F"
       radius="0"
       chamfer_steps="12"
       flexible="false"
       use_knot_distance="true"
       apply_no_radius="true"
       apply_with_radius="true"
       only_selected="false"
       hide_knots="false" />
  </defs>
  <g
     inkscape:label="Layer 1"
     inkscape:groupmode="layer"
     id="layer1"
     transform="translate(-29.233105,-99.73555)">
    <g
       id="g12660"
       transform="translate(-0.43963503,0.3572222)"
       inkscape:export-filename="/home/ruusaig/Projects/xfce4-kind-plugin/icons/48x48/xfce4-kind-plugin.png"
       inkscape:export-xdpi="36.000004"
       inkscape:export-ydpi="36.000004">
      <path
         style="fill:#f4f4f4;stroke-width:0.264583"
         d="m 35.254801,129.07082 c -1.402427,-0.23576 0.01733,-3.36508 -0.593534,-4.60317 -0.567681,-1.15057 -3.022633,0.43174 -1.968958,-8.64526 l 0.79984,-6.89031 1.038255,-1.82177 c 2.209943,-4.6158 0.75949,-4.30706 11.665813,-4.00559 6.97286,-8.2e-4 7.49349,-0.26478 8.183386,0.0659 0.625049,0.29957 1.09669,0.31238 1.970995,1.99256 0.641416,1.23263 1.355748,2.68363 1.587456,2.94298 0.231709,0.25936 0.883267,1.30639 1.06747,1.54047 0.361884,0.45986 1.68879,12.84717 1.68879,15.99231 0,1.7401 -0.116972,1.54183 -0.912836,2.77189 l -4.898057,0.97245 -7.459487,-0.0997 c -6.158812,0.0204 -11.208434,-0.0332 -11.798085,-0.13233 z"
         id="path12722"
         sodipodi:nodetypes="cssccccsscsscccc" />
      <path
         style="fill:#eae9e9;stroke-width:0.264583"
         d="m 38.548366,129.16818 c -4.24607,-0.16125 -4.922915,-0.15023 -5.88732,-1.7319 -0.632315,-1.03703 -0.328322,-4.15359 -0.01419,-12.38131 l 0.206075,-5.39755 1.348834,-2.67478 c 0.765163,-1.51734 1.708125,-2.9771 2.179138,-3.37344 l 0.830304,-0.69865 h 8.681638 c 10.059251,0 9.157861,-0.25124 10.863055,3.02785 0.601141,1.15599 1.438854,2.58474 1.861584,3.175 0.751827,1.04977 0.783138,1.23052 1.43482,8.28266 0.811636,8.78309 0.819592,9.41324 0.132882,10.52436 -1.019024,1.64882 -1.376904,1.43097 -10.021701,1.37281 -4.270872,-0.0287 -9.497725,-0.0446 -11.615117,-0.12505 z"
         id="path12720"
         sodipodi:nodetypes="ssscsccssssscs" />
      <path
         style="fill:#e8e6e7;stroke-width:0.264583"
         d="m 41.897687,129.26242 c -7.018342,-0.13732 -7.27035,-0.047 -8.079914,-0.62449 -0.500551,-0.35703 -1.028827,-1.09495 -1.308906,-1.82833 -0.446397,-1.16887 -0.448729,-1.61676 -0.04717,-9.05863 l 0.422446,-7.82896 1.218566,-2.55318 c 0.670211,-1.40425 1.563372,-2.9223 1.984801,-3.37344 l 0.766236,-0.82026 h 8.980964 c 10.33424,0 9.103149,-0.35878 10.894408,3.175 0.626994,1.23693 1.429104,2.55854 1.782469,2.93692 0.600569,0.64309 0.684495,1.11769 1.286645,7.27604 0.354292,3.62345 0.646763,7.56847 0.649938,8.76672 0.0053,2.01232 -0.08577,2.12492 -0.764757,2.88484 -1.224394,1.37033 -1.243327,1.37145 -17.785726,1.04777 z m 8.016523,-13.67721 c 1.279062,-0.64845 1.620591,-1.73137 1.595664,-5.05954 -0.01463,-1.95299 -0.140423,-2.85912 -0.498687,-3.59213 -0.449141,-0.91894 -0.578469,-0.99373 -2.066625,-1.19521 -2.03525,-0.27554 -7.271867,-0.0798 -7.978184,0.29819 -1.144148,0.61233 -1.513668,6.79779 -0.520801,8.71778 0.549765,1.06313 1.58151,1.31912 5.323986,1.32094 2.571933,0.001 3.359177,-0.0918 4.144647,-0.49003 z"
         id="path12718"
         sodipodi:nodetypes="scsscsccsssscsscssccscc" />
      <path
         style="fill:#e5e4e5;stroke-width:0.264583"
         d="M 44.975813,129.37752 C 33.501698,129.21669 33.706279,129.25504 32.646777,127.0664 l 0.237326,-1.45479 -0.40573,-7.75698 0.440867,-7.95319 1.09305,-2.3325 c 0.601178,-1.28288 1.512058,-2.7963 2.024178,-3.36316 l 0.931128,-1.03065 h 8.773883 c 9.489311,0 9.700921,0.0301 10.05191,1.42852 0.232722,0.92724 2.281039,4.6569 2.557555,4.6569 0.567849,0 0.843166,1.49347 1.451681,7.87474 0.757822,7.94702 0.79655,9.59776 0.249957,10.65475 -0.888785,1.71872 -1.455552,1.7784 -15.076769,1.58748 z m 6.059689,-13.06433 c 1.270718,-0.8326 1.518487,-1.74546 1.470607,-5.41815 -0.06258,-4.80012 -0.112818,-5.01107 -1.275531,-5.35584 -1.406497,-0.41706 -11.278926,-0.22508 -11.732262,0.22814 -0.246213,0.24615 -0.36715,1.57962 -0.427517,4.71388 -0.08372,4.34674 -0.08046,4.37551 0.596657,5.26326 0.831264,1.08984 1.237162,1.15504 6.677198,1.0726 3.235765,-0.049 4.145862,-0.1468 4.690848,-0.50389 z"
         id="path12716"
         sodipodi:nodetypes="ssccccccscsssscssssccc" />
      <path
         style="fill:#e4e3e4;stroke-width:0.264583"
         d="m 34.789355,129.07236 c -1.072503,-0.42641 -1.732884,-1.71547 -2.034006,-2.83375 -0.162401,-0.60311 -0.588169,-1.93073 -0.499603,-3.324 0.08423,-1.3251 0.271781,-4.79052 0.416773,-7.70094 l 0.263622,-5.29166 1.321358,-2.68667 c 0.762489,-1.55035 1.666559,-2.97714 2.137532,-3.37344 l 0.816174,-0.68677 h 8.652078 c 7.402587,0 8.736999,0.0595 9.240116,0.41188 0.323421,0.22653 0.588038,0.62338 0.588038,0.88189 0,0.60957 2.086978,4.59556 2.549371,4.86913 0.724834,0.42884 0.906497,1.36799 1.552295,8.02499 0.944332,9.73436 0.899951,10.36223 -0.812215,11.49089 -0.737637,0.48626 -1.33708,0.51074 -12.152992,0.49646 -6.880939,-0.009 -11.638487,-0.11896 -12.038541,-0.27801 z m 13.824478,-9.95516 c -1.637109,-0.0464 -4.316015,-0.0464 -5.953124,0 -1.63711,0.0464 -0.297657,0.0844 2.976562,0.0844 3.274218,0 4.613672,-0.038 2.976562,-0.0844 z m 2.839884,-1.87985 c 1.781457,-0.9554 1.866711,-1.24402 1.899009,-6.42884 0.01596,-2.56174 -0.04459,-4.77682 -0.134557,-4.92238 -0.365786,-0.59185 -2.74228,-0.85885 -7.631915,-0.85744 -4.892406,0.001 -6.875343,0.22648 -7.243485,0.82215 -0.236217,0.3822 -0.448431,7.84832 -0.252728,8.89151 0.181773,0.96894 1.281571,2.39675 2.101692,2.72852 0.30291,0.12254 2.75526,0.23035 5.449666,0.23957 4.283002,0.0147 5.013756,-0.0448 5.812318,-0.47309 z"
         id="path12714"
         sodipodi:nodetypes="csssccscscssssccsssscscccsscc" />
      <path
         style="fill:#e2e1e1;stroke-width:0.264583"
         d="m 34.657063,128.99963 c -0.436562,-0.19636 -1.071584,-0.65836 -1.411158,-1.02665 -1.156669,-1.25448 -1.159519,-1.35783 -0.412924,-14.97233 0.172187,-3.13991 0.224238,-3.3635 1.295339,-5.56419 0.61377,-1.26106 1.533664,-2.73574 2.04421,-3.27708 l 0.928265,-0.98425 h 8.651257 c 5.328606,0 8.843365,0.10282 9.151452,0.2677 0.568255,0.30412 1.048857,1.77761 1.05104,3.22242 7.94e-4,0.53711 0.120539,1.05015 0.26606,1.14009 0.14552,0.0899 0.264583,-0.0291 0.264583,-0.26458 0,-0.83429 0.485878,-0.11289 0.669195,0.99357 0.102341,0.6177 0.346059,1.42075 0.541596,1.78455 l 0.355521,0.66146 0.01058,-0.7276 c 0.01013,-0.69648 0.358111,-0.97099 0.644147,-0.50818 0.385958,0.6245 1.743736,13.05685 1.746343,15.99019 0.0013,1.36855 -0.09167,1.62676 -0.904164,2.51354 l -0.90551,0.9883 -11.596042,0.06 c -9.264955,0.048 -11.755606,-0.0117 -12.389793,-0.297 z m 22.489582,-2.012 c -0.100457,-0.45737 -0.242178,-0.77205 -0.314939,-0.69929 -0.07276,0.0728 -0.0501,0.5065 0.05036,0.96388 0.100457,0.45737 0.242178,0.77205 0.314939,0.69929 0.07276,-0.0728 0.0501,-0.5065 -0.05036,-0.96388 z m -1.190625,-7.54062 c 0,-0.21828 -0.231097,-0.39688 -0.513551,-0.39688 -0.615419,0 -0.948877,0.42906 -0.480285,0.61797 0.631913,0.25477 0.993836,0.17425 0.993836,-0.22109 z m -3.704166,-0.10718 c 1.222101,-0.20555 1.131357,-0.29261 -0.661458,-0.63463 -0.482632,-0.0921 -0.470999,-0.12554 0.132291,-0.38055 0.862432,-0.36455 2.00939,-1.59323 2.364418,-2.53289 0.159705,-0.42269 0.281415,-2.74575 0.281415,-5.37131 v -4.62649 l -0.992187,-0.44952 c -0.848731,-0.38452 -1.948565,-0.44952 -7.60677,-0.44952 -5.658206,0 -6.75804,0.065 -7.606771,0.44952 l -0.992187,0.44952 v 4.7934 c 0,3.02382 0.10961,5.00674 0.296911,5.37131 0.454698,0.88504 1.612599,2.05411 2.348922,2.37157 l 0.661458,0.28519 -0.661458,0.098 c -1.260755,0.18685 -1.500813,0.40878 -0.661458,0.61151 1.060979,0.25625 11.590537,0.26819 13.096874,0.0149 z m 4.479319,-8.9548 c -0.01625,-0.6352 -0.04563,-0.6604 -0.231474,-0.19844 -0.117083,0.29104 -0.161221,0.61846 -0.09808,0.72761 0.224118,0.3874 0.347901,0.18864 0.329554,-0.52917 z"
         id="path12712" />
      <path
         style="fill:#dee0e2;stroke-width:0.264583"
         d="m 34.657063,128.99963 c -1.119302,-0.50347 -1.992189,-1.53498 -2.244094,-2.65189 -0.121999,-0.54093 -0.04738,-4.31225 0.171958,-8.69068 l 0.387486,-7.73505 1.130975,-2.38394 c 0.622036,-1.31117 1.550922,-2.82922 2.064191,-3.37344 l 0.933216,-0.9895 h 8.766155 c 8.173135,0 8.799232,0.0331 9.255119,0.48897 0.39206,0.39206 0.525044,1.08684 0.671005,3.50573 0.24515,4.06259 0.387181,4.78315 0.922483,4.67992 0.237098,-0.0457 0.695217,0.2162 1.01804,0.58206 l 0.586952,0.6652 0.05683,-0.92604 c 0.03126,-0.50933 0.04237,-1.19394 0.02469,-1.52136 -0.05788,-1.07233 0.428453,-0.62313 0.572913,0.52917 1.088745,8.68451 1.597396,14.43308 1.379739,15.59329 -0.09589,0.51115 -0.529207,1.25898 -0.97957,1.69057 l -0.807598,0.77395 -11.558366,0.06 c -9.233351,0.048 -11.718032,-0.0118 -12.352116,-0.297 z m 22.983792,-1.37732 c -0.135022,-1.94044 -0.457591,-4.03681 -0.964231,-6.26649 -0.544029,-2.39423 -0.631174,-2.57855 -1.15778,-2.44884 -0.313207,0.0771 -0.942506,0.0656 -1.398441,-0.0255 -0.744422,-0.14889 -0.789416,-0.20951 -0.441136,-0.59435 0.785015,-0.86744 0.979724,-2.08211 1.062447,-6.62799 0.106406,-5.84733 0.07171,-6.04778 -1.139833,-6.58497 -1.497864,-0.66416 -12.342461,-0.79219 -14.859172,-0.17544 -1.01277,0.24819 -1.915121,0.57054 -2.005224,0.71633 -0.0901,0.14579 -0.14225,2.59162 -0.115884,5.43519 0.04937,5.32483 0.168701,6.00101 1.283375,7.27231 0.335014,0.38209 0.340999,0.46449 0.03424,0.47143 -0.253881,0.006 -0.20397,0.13623 0.15743,0.41157 0.450439,0.34317 1.692944,0.39492 8.35148,0.34787 5.039404,-0.0356 7.997666,0.0429 8.3152,0.22055 0.388234,0.21727 0.621241,1.0402 1.097407,3.87582 0.332486,1.98 0.736129,3.8459 0.896985,4.14646 0.348753,0.65165 0.932583,0.53668 0.883137,-0.17392 z"
         id="path12710" />
      <path
         style="fill:#e1e0de;stroke-width:0.264583"
         d="m 34.959363,129.10094 c -0.942954,-0.2877 -1.689125,-0.95136 -2.226586,-1.98039 -0.485085,-0.92875 -0.490784,-2.52229 -0.03974,-11.11313 0.302385,-5.75936 0.315429,-5.84395 1.235287,-8.01045 0.974624,-2.29549 2.099755,-3.94024 3.065828,-4.48173 0.41503,-0.23263 2.882878,-0.32394 8.938166,-0.33073 10.358616,-0.0116 9.601176,-0.31993 9.862605,4.01456 0.243197,4.03217 0.386042,4.75377 0.920633,4.65068 0.237098,-0.0457 0.695217,0.2162 1.01804,0.58206 l 0.586952,0.6652 0.05683,-0.92604 c 0.03126,-0.50933 0.04237,-1.19394 0.02469,-1.52136 -0.05788,-1.07233 0.428453,-0.62313 0.572913,0.52917 1.088745,8.68451 1.597396,14.43308 1.379739,15.59329 -0.09589,0.51115 -0.529207,1.25898 -0.979564,1.69057 l -0.807607,0.77395 -11.426078,0.0475 c -6.284343,0.0261 -11.766293,-0.0563 -12.182112,-0.18316 z m 22.681492,-1.47863 c -0.135022,-1.94044 -0.457591,-4.03681 -0.964231,-6.26649 -0.544029,-2.39423 -0.631174,-2.57855 -1.15778,-2.44884 -0.313207,0.0771 -0.942506,0.0656 -1.398441,-0.0255 -0.744422,-0.14889 -0.789416,-0.20951 -0.441136,-0.59435 0.785015,-0.86744 0.979724,-2.08211 1.062447,-6.62799 0.106406,-5.84733 0.07171,-6.04778 -1.139833,-6.58497 -1.497864,-0.66416 -12.342461,-0.79219 -14.859172,-0.17544 -1.01277,0.24819 -1.915121,0.57054 -2.005224,0.71633 -0.0901,0.14579 -0.14225,2.59162 -0.115884,5.43519 0.04937,5.32483 0.168701,6.00101 1.283375,7.27231 0.335014,0.38209 0.340999,0.46449 0.03424,0.47143 -0.253881,0.006 -0.20397,0.13623 0.15743,0.41157 0.450439,0.34317 1.692944,0.39492 8.35148,0.34787 5.039404,-0.0356 7.997666,0.0429 8.3152,0.22055 0.388234,0.21727 0.621241,1.0402 1.097407,3.87582 0.332486,1.98 0.736129,3.8459 0.896985,4.14646 0.348753,0.65165 0.932583,0.53668 0.883137,-0.17392 z"
         id="path12708" />
      <path
         style="fill:#e0dfe0;stroke-width:0.264583"
         d="m 34.959363,129.10094 c -0.942954,-0.2877 -1.689125,-0.95136 -2.226586,-1.98039 -0.485085,-0.92875 -0.490784,-2.52229 -0.03974,-11.11313 0.302385,-5.75936 0.315429,-5.84395 1.235287,-8.01045 0.974624,-2.29549 2.099755,-3.94024 3.065828,-4.48173 0.41503,-0.23263 2.882878,-0.32394 8.938166,-0.33073 10.358616,-0.0116 9.601176,-0.31993 9.862605,4.01456 0.243197,4.03217 0.386042,4.75377 0.920633,4.65068 0.237098,-0.0457 0.695217,0.2162 1.01804,0.58206 l 0.586952,0.6652 0.05683,-0.92604 c 0.03126,-0.50933 0.04237,-1.19394 0.02469,-1.52136 -0.05788,-1.07233 0.428453,-0.62313 0.572913,0.52917 1.088745,8.68451 1.597396,14.43308 1.379739,15.59329 -0.09589,0.51115 -0.529207,1.25898 -0.979564,1.69057 l -0.807607,0.77395 -11.426078,0.0475 c -6.284343,0.0261 -11.766293,-0.0563 -12.182112,-0.18316 z m 23.291306,-1.18285 0.560311,-0.39245 -1.063889,-3.37786 c -0.585142,-1.85782 -1.194258,-3.83065 -1.353593,-4.38407 -0.244459,-0.84907 -0.379843,-0.98359 -0.866912,-0.86134 -0.317466,0.0797 -0.950248,0.0703 -1.406183,-0.0209 -0.744422,-0.14889 -0.789416,-0.20951 -0.441136,-0.59435 0.785015,-0.86744 0.979724,-2.08211 1.062447,-6.62799 0.106406,-5.84733 0.07171,-6.04778 -1.139833,-6.58497 -1.497864,-0.66415 -12.342461,-0.79219 -14.859172,-0.17544 -1.01277,0.24819 -1.915121,0.57054 -2.005224,0.71633 -0.0901,0.14579 -0.14225,2.59162 -0.115884,5.43519 0.04937,5.32483 0.168701,6.00101 1.283375,7.27231 0.335014,0.38209 0.340999,0.46449 0.03424,0.47143 -0.253881,0.006 -0.20397,0.13623 0.15743,0.41157 0.450665,0.34334 1.699205,0.39488 8.416151,0.34739 6.476627,-0.0458 7.95338,0.0107 8.258285,0.31604 0.204215,0.20449 0.55704,1.62195 0.784053,3.14992 0.357936,2.40916 0.54733,3.28389 1.074136,4.96094 0.140594,0.44757 0.937593,0.41723 1.621398,-0.0617 z"
         id="path12706" />
      <path
         style="fill:#e0dede;stroke-width:0.264583"
         d="m 34.959363,129.09683 c -0.920657,-0.27589 -1.688414,-0.94353 -2.181471,-1.897 -0.45962,-0.8888 -0.480992,-4.20397 -0.07471,-11.58928 0.291648,-5.30154 0.319332,-5.47338 1.226601,-7.61358 0.972779,-2.29474 2.097634,-3.93987 3.064372,-4.48173 0.415056,-0.23264 2.88425,-0.32394 8.944535,-0.33073 9.938497,-0.0111 9.576129,-0.11156 9.637402,2.67106 0.0474,2.15281 0.505925,6.14169 0.751699,6.53936 0.103746,0.16786 0.302342,0.3052 0.441325,0.3052 0.138986,0 0.604718,0.38696 1.034963,0.8599 l 0.782264,0.85989 0.0078,-1.57427 c 0.01614,-3.27651 0.488442,-0.83503 1.217615,6.29428 l 0.753364,7.36583 -0.518591,0.96854 c -1.015198,1.89602 -1.01868,1.89651 -13.350882,1.87143 -6.039114,-0.0123 -11.320423,-0.12428 -11.736242,-0.2489 z m 23.291306,-1.17874 0.560311,-0.39245 -1.072419,-3.37786 c -0.589831,-1.85782 -1.124107,-3.87107 -1.187276,-4.47389 l -0.114858,-1.09603 -1.075374,0.14424 c -1.040716,0.13959 -1.068478,0.12375 -0.861357,-0.49147 0.117711,-0.34964 0.265054,-3.33532 0.32743,-6.63484 l 0.113411,-5.99913 -0.73668,-0.48316 c -0.65569,-0.43004 -1.494335,-0.49304 -7.628196,-0.57305 -7.061588,-0.0921 -9.2936,0.11174 -9.955483,0.90926 -0.23877,0.2877 -0.311795,1.76189 -0.271241,5.4757 0.05428,4.97093 0.305079,6.998 0.915195,7.39712 0.220423,0.14419 0.204284,0.2623 -0.05904,0.43205 -0.265996,0.17148 -0.09006,0.32837 0.661459,0.58983 0.767554,0.26705 2.990887,0.35759 8.881937,0.3617 4.948188,0.003 7.957404,0.10478 8.126276,0.27363 0.147501,0.14749 0.453794,1.5167 0.680653,3.04271 0.357686,2.40605 0.54712,3.28056 1.073852,4.95737 0.140594,0.44757 0.937593,0.41723 1.621398,-0.0617 z"
         id="path12704" />
      <path
         style="fill:#dedee0;stroke-width:0.264583"
         d="m 34.959363,129.09683 c -0.920657,-0.27589 -1.688414,-0.94353 -2.181471,-1.897 -0.45962,-0.8888 -0.480992,-4.20397 -0.07471,-11.58928 0.291648,-5.30154 0.319332,-5.47338 1.226601,-7.61358 0.972779,-2.29474 2.097634,-3.93987 3.064372,-4.48173 0.415056,-0.23264 2.88425,-0.32394 8.944535,-0.33073 9.938497,-0.0111 9.576129,-0.11156 9.637402,2.67106 0.0474,2.15281 0.505925,6.14169 0.751699,6.53936 0.103746,0.16786 0.346308,0.3052 0.53903,0.3052 0.305015,0 0.767874,0.87782 0.715817,1.35756 -0.0099,0.0918 0.235752,0.38947 0.546031,0.66146 0.310283,0.27199 0.485461,0.35919 0.389287,0.19377 -0.09617,-0.16541 -0.0024,-0.44381 0.208203,-0.61866 0.481476,-0.39959 0.508993,-0.27725 1.071584,4.76423 0.64802,5.80701 0.665152,7.77442 0.07613,8.74298 -0.933839,1.53558 -1.226015,1.56968 -13.235916,1.54467 -6.007408,-0.0125 -11.262775,-0.12469 -11.678594,-0.24931 z m 24.037421,-1.57689 c 0.09015,-0.14585 -0.46785,-2.21288 -1.239994,-4.59338 l -1.403895,-4.32819 -1.033609,0.13398 c -0.994792,0.12895 -1.025572,0.11011 -0.81959,-0.50172 0.117711,-0.34964 0.265054,-3.33532 0.32743,-6.63484 l 0.113411,-5.99913 -0.73668,-0.48316 c -0.65569,-0.43004 -1.494335,-0.49304 -7.628196,-0.57305 -7.061588,-0.0921 -9.2936,0.11174 -9.955483,0.90926 -0.23877,0.2877 -0.311795,1.76189 -0.271241,5.4757 0.05428,4.97093 0.305079,6.998 0.915195,7.39712 0.220423,0.14419 0.204284,0.2623 -0.05904,0.43205 -0.266042,0.17151 -0.09019,0.32863 0.661459,0.59099 0.768186,0.26813 2.952991,0.35844 8.749607,0.36169 4.804756,0.003 7.82608,0.10462 7.991088,0.26958 0.145927,0.14589 0.393635,1.15793 0.550461,2.24896 0.559707,3.89387 1.109117,5.85399 1.703697,6.07825 0.552834,0.20851 1.80639,-0.25179 2.135378,-0.78411 z"
         id="path12702" />
      <path
         style="fill:#dbdbdc;stroke-width:0.264583"
         d="m 35.109248,129.10842 c -1.007265,-0.23865 -1.805894,-0.89246 -2.331356,-1.90859 -0.46549,-0.90015 -0.463585,-5.2411 0.0054,-12.38303 0.329992,-5.02493 0.3631,-5.21123 1.270467,-7.1494 0.512406,-1.09451 1.400171,-2.50761 1.972812,-3.14022 l 1.041165,-1.15021 8.768162,-0.0131 c 9.381068,-0.014 9.590924,0.0144 9.590924,1.29883 0,0.75155 0.04233,0.74506 -1.083829,0.16604 -0.796696,-0.40963 -1.785377,-0.46302 -8.573462,-0.46302 -6.654033,0 -7.804669,0.0597 -8.665104,0.44952 l -0.992188,0.44952 0.0019,5.10673 c 10e-4,2.8087 0.07647,5.89632 0.167629,6.86137 l 0.165749,1.75465 1.089141,0.36202 c 0.820351,0.27268 3.031096,0.36466 8.957969,0.37272 4.770624,0.006 7.970911,0.11279 8.128101,0.26998 0.142601,0.1426 0.444896,1.507 0.671767,3.03201 0.765911,5.14836 1.302616,6.04125 3.007956,5.00417 0.455705,-0.27713 0.828556,-0.59938 0.828556,-0.71612 0,-0.11673 -0.595313,-1.98925 -1.322917,-4.16116 -0.727604,-2.1719 -1.322916,-4.17447 -1.322916,-4.45016 0,-0.36963 -0.121574,-0.45393 -0.463021,-0.32104 -0.875764,0.34084 -0.992148,0.27099 -0.977488,-0.58661 0.0081,-0.47294 0.03785,-2.77192 0.06614,-5.10884 0.071,-5.86363 0.449529,-5.43877 1.015776,1.14009 0.175126,2.03466 0.472517,2.30513 0.734325,0.66787 l 0.178787,-1.11807 0.695886,0.88917 0.695883,0.88917 0.244827,-0.63099 c 0.235318,-0.60649 0.253418,-0.61045 0.466034,-0.10184 0.319278,0.76378 1.050973,8.35284 1.048832,10.87838 -0.0021,2.51032 -0.458522,3.34941 -2.064377,3.79541 -1.148841,0.31907 -21.677547,0.33219 -23.017549,0.0147 z"
         id="path12700" />
      <path
         style="fill:#d6d6d8;stroke-width:0.264583"
         d="m 35.391294,129.09402 c -1.263569,-0.2736 -2.186484,-0.97636 -2.608414,-1.98618 -0.468289,-1.12077 -0.467858,-4.43486 0.0015,-11.89417 l 0.349648,-5.55625 0.983023,-2.03728 c 0.911123,-1.88828 1.588168,-2.82354 1.85258,-2.55913 0.06006,0.0601 0.02045,2.36898 -0.08801,5.13093 -0.108469,2.76196 -0.130721,5.85201 -0.04945,6.86678 l 0.147767,1.84505 1.322916,0.5007 c 1.142499,0.4324 2.134796,0.50553 7.276042,0.53619 3.274218,0.0195 6.750803,-0.024 7.725742,-0.0968 1.019609,-0.0761 1.881836,-0.0199 2.029721,0.13229 0.141406,0.14552 0.441817,1.57427 0.667581,3.175 0.524684,3.72017 0.847051,4.81892 1.519426,5.17876 1.125173,0.60218 2.874196,-0.36711 2.874196,-1.59285 0,-0.38373 -0.542492,-2.12145 -1.205537,-3.86159 -1.246632,-3.27175 -1.623058,-5.42688 -1.160426,-6.64369 l 0.267285,-0.70302 0.736954,0.70605 c 0.405324,0.38832 0.814666,0.62833 0.909643,0.53335 0.329756,-0.32975 0.645237,1.10887 0.944713,4.30794 0.482198,5.15096 0.428096,6.02563 -0.432273,6.98855 -0.527942,0.59087 -1.102368,0.89093 -2.050521,1.0711 -1.481021,0.28144 -20.689827,0.24501 -22.014148,-0.0418 z m 20.061933,-11.43295 c 0.0145,-0.32742 0.112482,-0.89297 0.217725,-1.25677 0.180823,-0.62506 0.199285,-0.61051 0.33553,0.26458 0.0793,0.50933 0.08765,1.07487 0.01855,1.25677 -0.209354,0.55115 -0.599939,0.37042 -0.571807,-0.26458 z m -1.34929,-13.46055 c -0.407197,-0.16252 -3.882051,-0.23235 -9.039798,-0.18167 -6.680083,0.0656 -8.322638,0.0153 -8.10354,-0.2484 0.387972,-0.46694 17.417867,-0.47954 17.884171,-0.0132 0.68884,0.68884 0.36297,0.88383 -0.740833,0.4433 z"
         id="path12698" />
      <path
         style="fill:#d5d5d5;stroke-width:0.264583"
         d="m 38.493521,129.1182 c -2.456271,-0.0936 -4.058717,-0.27285 -4.454264,-0.49827 -0.339793,-0.19364 -0.843194,-0.84849 -1.118668,-1.45521 -0.606276,-1.3353 -0.631392,-3.35444 -0.144276,-11.59861 l 0.338739,-5.73298 1.089542,-2.27066 c 0.599249,-1.24887 1.219789,-2.27067 1.378979,-2.27067 0.206784,0 0.236613,1.9179 0.104457,6.71614 -0.182184,6.6146 -0.176702,6.72058 0.362567,7.00919 2.137725,1.14407 9.544479,1.69047 14.764703,1.08919 2.121708,-0.24439 3.125862,-0.26646 3.319349,-0.073 0.152574,0.15258 0.387559,1.21416 0.52219,2.35908 0.13463,1.14492 0.438438,2.89808 0.675128,3.89592 0.397313,1.67499 0.503784,1.84625 1.387096,2.23124 l 0.956749,0.41699 -0.79375,0.18485 c -0.917734,0.21373 -12.749918,0.21166 -18.388541,-0.003 z m 19.314583,-0.40398 c 0,-0.069 0.347273,-0.30508 0.771718,-0.52457 0.495281,-0.25612 0.83471,-0.68587 0.94757,-1.19973 0.09672,-0.44036 0.290071,-0.73007 0.429671,-0.64379 0.632841,0.39112 -0.771774,2.49359 -1.665912,2.49359 -0.265676,0 -0.483047,-0.0565 -0.483047,-0.1255 z m 0.680143,-6.00305 c -1.336223,-3.4195 -1.708825,-5.14031 -1.279231,-5.90795 0.227676,-0.40683 0.322804,-0.36475 0.850418,0.37622 0.427429,0.60026 0.684122,0.75955 0.915114,0.56784 0.244279,-0.20273 0.395444,0.28497 0.632169,2.03956 0.563396,4.17582 0.616707,4.94593 0.385633,5.57058 -0.19571,0.52905 -0.412017,0.14849 -1.504103,-2.64625 z M 37.435188,103.7043 c 0,-0.14552 0.245152,-0.26458 0.544781,-0.26458 0.29963,0 0.471197,0.11906 0.381261,0.26458 -0.08994,0.14552 -0.335089,0.26458 -0.544782,0.26458 -0.209693,0 -0.38126,-0.11906 -0.38126,-0.26458 z m 15.742707,0 c -0.484627,-0.20825 -0.473493,-0.22862 0.132292,-0.24194 0.363802,-0.008 0.840052,0.10088 1.058333,0.24194 0.327568,0.21169 0.304465,0.25394 -0.132291,0.24194 -0.291042,-0.008 -0.767292,-0.11688 -1.058334,-0.24194 z"
         id="path12696" />
      <path
         style="fill:#d1d1d1;stroke-width:0.264583"
         d="m 38.758105,129.1175 c -4.615424,-0.16374 -4.993399,-0.29442 -5.828116,-2.01496 -0.631738,-1.30216 -0.650918,-2.78173 -0.146459,-11.2982 l 0.356817,-6.02392 1.076895,-2.24431 c 0.592292,-1.23437 1.198294,-2.24431 1.34667,-2.24431 0.177848,0 0.249622,2.31693 0.21063,6.7994 l -0.05915,6.79939 1.5875,0.59295 c 0.873125,0.32612 1.931128,0.666 2.351117,0.7553 l 0.763616,0.16237 -0.72174,0.75333 c -0.459193,0.4793 -0.736973,1.07572 -0.763616,1.63957 -0.05164,1.09287 0.302842,1.10732 2.668293,0.10876 2.027821,-0.85603 4.538327,-1.12069 6.663842,-0.70252 2.041457,0.40163 2.781069,0.0994 2.531974,-1.03475 -0.153969,-0.70102 -0.09045,-0.77928 0.842914,-1.03846 1.334995,-0.37071 2.077849,-0.35599 2.396326,0.0475 0.143584,0.1819 0.327935,1.16417 0.409668,2.18281 0.08173,1.01865 0.346048,2.71742 0.587367,3.77504 0.386294,1.69301 0.538926,1.97562 1.276376,2.36332 l 0.837612,0.44036 -0.661458,0.18999 c -0.750417,0.21556 -11.556338,0.2103 -17.727082,-0.009 z m 19.446874,-0.54237 c 0.08994,-0.14552 0.282582,-0.26458 0.428103,-0.26458 0.145521,0 0.191,0.11906 0.101063,0.26458 -0.08994,0.14552 -0.282583,0.26459 -0.428104,0.26459 -0.14552,0 -0.191,-0.11907 -0.101062,-0.26459 z m 1.313336,-4.13596 c -0.09219,-0.41736 -0.583891,-1.75445 -1.092658,-2.97131 -0.50877,-1.21687 -0.983488,-2.64562 -1.054931,-3.175 l -0.129892,-0.96252 0.563206,0.66146 c 0.309763,0.3638 0.838308,0.98311 1.174546,1.37623 0.499245,0.58372 0.646001,1.15787 0.800383,3.13133 0.188412,2.40849 0.05772,3.38108 -0.260654,1.93981 z"
         id="path12694" />
      <path
         style="fill:#ced1d3;stroke-width:0.264583"
         d="m 38.758105,129.1175 c -4.615424,-0.16374 -4.993399,-0.29442 -5.828116,-2.01496 -0.628361,-1.2952 -0.644242,-2.52005 -0.144775,-11.16645 l 0.212265,-6.26818 1.220021,-2.13234 c 0.59215,-1.23407 1.213984,-2.24377 1.381852,-2.24377 0.226222,0 0.256158,1.21549 0.115667,4.69635 -0.224804,5.56985 -0.201015,4.56849 -0.163247,6.87142 l 0.03133,1.91048 1.449429,0.68569 1.449429,0.68569 -0.169044,1.63716 c -0.185055,1.79224 -0.188181,1.86493 -0.12161,2.82779 0.09404,1.3602 0.409414,1.45662 1.749212,0.53482 2.147814,-1.47774 3.867055,-1.93065 6.61838,-1.74352 5.073238,0.34505 5.404869,0.22069 5.419955,-2.03244 0.0084,-1.25001 0.01323,-1.25677 0.903598,-1.25677 1.03146,0 1.211102,0.37031 1.219346,2.51354 0.0028,0.7276 0.115865,1.73963 0.251258,2.24896 0.135394,0.50932 0.37723,1.43126 0.537414,2.04875 0.220078,0.84838 0.498554,1.22992 1.139666,1.56145 0.775367,0.40096 0.803008,0.45646 0.321006,0.64463 -0.57953,0.22623 -11.122429,0.22126 -17.593039,-0.008 z"
         id="path12692"
         sodipodi:nodetypes="cssccssscccsscscsssssccc" />
      <path
         style="fill:#cccdd0;stroke-width:0.264583"
         d="m 41.713871,129.11453 -7.230692,-0.14252 -0.905245,-0.9883 c -0.921206,-1.00573 -0.935218,-1.06159 -1.046415,-4.17108 -0.02342,-0.65484 0.116114,-4.05926 0.310069,-7.56538 l 0.352646,-6.37475 0.910647,-1.99828 c 0.85821,-1.88322 1.342205,-2.54205 1.64501,-2.23925 0.07237,0.0724 -0.0095,2.81653 -0.182037,6.09813 -0.17249,3.2816 -0.243228,6.247 -0.157196,6.58978 0.112228,0.44715 0.568011,0.79383 1.61322,1.22705 l 1.456798,0.6038 -0.1684,1.63102 c -0.184382,1.7858 -0.187521,1.85902 -0.120967,2.82163 0.09404,1.3602 0.409414,1.45662 1.749212,0.53482 2.147814,-1.47774 3.867055,-1.93065 6.61838,-1.74352 5.073238,0.34505 5.404869,0.22069 5.419955,-2.03244 0.0084,-1.25001 0.01323,-1.25677 0.903598,-1.25677 1.03146,0 1.211102,0.37031 1.219346,2.51354 0.0028,0.7276 0.115865,1.73963 0.251258,2.24896 0.135394,0.50932 0.37723,1.43126 0.537414,2.04875 0.217537,0.83858 0.506399,1.2396 1.141418,1.5846 l 0.850172,0.4619 -1.719792,0.1704 c -1.893368,0.18761 -2.892655,0.18597 -13.448399,-0.0221 z"
         id="path12690" />
      <path
         style="fill:#cacbcc;stroke-width:0.264583"
         d="m 34.339179,128.58584 c -0.465878,-0.28406 -1.027872,-0.86614 -1.248876,-1.29352 -0.505757,-0.97803 -0.558734,-4.52923 -0.179108,-12.00621 l 0.278428,-5.48381 1.084118,-2.15621 c 0.663278,-1.31919 1.179019,-2.0613 1.328588,-1.91173 0.149568,0.14957 0.143383,1.98554 -0.01593,4.7296 -0.14322,2.46682 -0.262083,5.35507 -0.264137,6.41833 l -0.0037,1.93321 1.389063,0.61331 1.389062,0.61332 v 3.06172 c 0,3.73452 0.198901,4.08015 1.626621,2.82659 2.121061,-1.86231 5.631428,-2.68906 8.538361,-2.01092 1.831396,0.42724 2.993332,0.32438 3.521272,-0.3117 0.185164,-0.2231 0.396193,-1.07195 0.468954,-1.88634 0.1222,-1.36777 0.182749,-1.48072 0.79375,-1.48072 0.637444,0 0.667117,0.0768 0.817335,2.11666 0.08573,1.16417 0.381556,2.93173 0.657386,3.92791 0.402025,1.45195 0.646651,1.8863 1.233186,2.18961 0.402421,0.2081 0.731676,0.43484 0.731676,0.50386 0,0.069 -4.792265,0.12505 -10.649479,0.12451 -10.095622,-0.001 -10.693532,-0.0279 -11.496529,-0.51747 z m -0.343574,-2.65654 c 0,-0.29104 -0.119063,-0.52917 -0.264584,-0.52917 -0.14552,0 -0.264583,0.23813 -0.264583,0.52917 0,0.29104 0.119063,0.52917 0.264583,0.52917 0.145521,0 0.264584,-0.23813 0.264584,-0.52917 z"
         id="path12688" />
      <path
         style="fill:#c4c6c9;stroke-width:0.264583"
         d="m 34.596128,128.71203 c -0.470077,-0.20435 -1.09471,-0.76524 -1.388073,-1.24642 -0.642266,-1.05343 -0.691929,-3.43335 -0.250147,-11.98735 l 0.286959,-5.55625 1.024635,-2.18281 c 0.563549,-1.20055 1.101125,-2.18282 1.194613,-2.18282 0.09349,0 0.12874,3.00344 0.07834,6.67431 l -0.09164,6.67431 1.190625,0.56706 1.190625,0.56705 v 3.40812 c 0,2.3403 0.109629,3.6004 0.349902,4.02185 l 0.349901,0.61374 1.105307,-0.94746 c 0.607918,-0.52111 1.700619,-1.26922 2.428223,-1.66247 1.148522,-0.62075 1.619388,-0.71364 3.571875,-0.70468 1.236927,0.006 3.058384,0.10742 4.047682,0.22608 1.751489,0.21009 1.819562,0.1958 2.59221,-0.54445 0.930905,-0.89186 0.950357,-0.87288 1.818268,1.7745 0.447138,1.3639 0.780214,1.94348 1.236307,2.15129 0.343355,0.15644 0.624282,0.38439 0.624282,0.50656 0,0.12216 -4.613671,0.21745 -10.252603,0.21175 -8.203153,-0.008 -10.423452,-0.0846 -11.107289,-0.38191 z m -0.543059,-4.36257 c -0.174682,-0.25245 -0.578653,0.67486 -0.582579,1.3373 -0.007,1.18469 0.386648,1.13787 0.530819,-0.0631 0.0759,-0.63225 0.09919,-1.20563 0.05176,-1.27418 z"
         id="path12686" />
      <path
         style="fill:#c2c3c5;stroke-width:0.264583"
         d="m 34.624864,128.72411 c -1.056463,-0.45979 -1.693237,-1.37316 -1.666704,-2.39066 0.01149,-0.44057 0.08656,-0.62243 0.166816,-0.40415 0.195763,0.53241 0.898613,1.32292 1.176219,1.32292 0.122967,0 0.214457,-1.10133 0.203311,-2.4474 l -0.02027,-2.4474 -0.742974,1.5875 c -0.619353,1.32336 -0.777995,1.50207 -0.953451,1.07401 -0.115762,-0.28242 -0.05882,-3.73523 0.126535,-7.67291 0.327992,-6.96781 0.358052,-7.21028 1.123126,-9.05947 0.432363,-1.04502 0.957005,-2.04186 1.165871,-2.21521 0.324375,-0.2692 0.376831,-0.0307 0.359691,1.63546 -0.01104,1.07284 -0.103066,3.31984 -0.204507,4.99333 -0.101441,1.67349 -0.122176,3.80727 -0.04608,4.74172 l 0.13836,1.69901 1.101722,0.36598 c 0.605946,0.20128 1.154015,0.50829 1.217929,0.68223 0.06391,0.17395 0.0024,1.22512 -0.136735,2.33592 -0.148455,1.18537 -0.159734,2.71551 -0.0273,3.70417 0.223467,1.66831 0.234236,1.68534 1.119197,1.76993 0.702711,0.0672 1.070029,-0.0853 1.719792,-0.71405 1.848624,-1.78875 4.98293,-2.50474 7.80252,-1.7824 2.090891,0.53566 3.574917,0.5467 4.00392,0.0298 0.583837,-0.70348 0.974909,-0.42974 1.66747,1.16717 0.423834,0.97728 0.88348,1.62916 1.225209,1.73762 1.690378,0.53651 -0.201999,0.66632 -9.573408,0.65673 -7.927996,-0.008 -10.299234,-0.0882 -10.946261,-0.36983 z"
         id="path12684" />
      <path
         style="fill:#bdc1c6;stroke-width:0.264583"
         d="m 34.624864,128.72411 c -1.054496,-0.45894 -1.692163,-1.37133 -1.670822,-2.39066 0.01435,-0.68552 0.04824,-0.7234 0.234987,-0.26267 0.250616,0.61829 1.018148,1.32264 1.220631,1.12016 0.07518,-0.0752 0.102065,-1.19347 0.05975,-2.4851 -0.08183,-2.49796 -0.111914,-2.50283 -1.021579,-0.1656 -0.266763,0.6854 -0.299826,0.69787 -0.570037,0.21504 -0.206941,-0.36977 -0.193709,-2.47038 0.0475,-7.54062 0.32392,-6.80893 0.358729,-7.08731 1.116321,-8.92811 0.430087,-1.04502 0.952867,-2.04186 1.161733,-2.21521 0.471344,-0.39118 0.488299,0.4974 0.121436,6.36421 -0.141045,2.25557 -0.170389,4.68574 -0.06521,5.40037 0.17035,1.15741 0.283886,1.3308 1.039472,1.5875 1.432354,0.48662 1.479376,0.62571 1.138244,3.36701 -0.191793,1.54123 -0.223558,2.97732 -0.08406,3.80033 l 0.224233,1.32291 1.406112,0.0807 c 1.173957,0.0674 1.552379,-0.0308 2.292031,-0.59499 2.033517,-1.55104 4.226134,-1.90989 7.231106,-1.18346 1.251204,0.30246 2.575951,0.48918 2.943883,0.41491 1.661307,-0.33531 1.720031,-0.32025 2.124174,0.54477 0.218282,0.46721 0.724297,0.98767 1.12448,1.15658 0.400182,0.16891 0.727604,0.41173 0.727604,0.53959 0,0.12967 -4.417244,0.22791 -9.988021,0.22213 -7.816502,-0.008 -10.167591,-0.0885 -10.813969,-0.36983 z"
         id="path12682" />
      <path
         style="fill:#babdc1;stroke-width:0.264583"
         d="m 34.559514,128.56122 c -0.935941,-0.41903 -1.357659,-0.92728 -1.357659,-1.63624 0,-0.15617 0.217734,-0.0869 0.483854,0.15394 1.092827,0.98899 1.233706,0.65388 1.271511,-3.02461 0.01957,-1.90375 -0.05371,-3.36201 -0.162845,-3.24058 -0.10913,0.12143 -0.535688,1.11375 -0.947907,2.20515 -0.746215,1.97571 -0.750557,1.9807 -0.994517,1.14328 -0.157818,-0.54173 -0.107025,-3.27267 0.142709,-7.67292 l 0.387739,-6.83182 0.892558,-1.78593 c 1.449867,-2.90107 1.434954,-2.96505 1.012423,4.34301 -0.353728,6.11808 -0.26263,6.97387 0.764756,7.18421 1.597214,0.327 1.708665,0.59491 1.364355,3.2797 -0.171014,1.33349 -0.228199,3.08671 -0.12708,3.89604 l 0.183854,1.47152 h 1.550881 c 1.263471,0 1.787793,-0.14728 2.829274,-0.7947 0.703117,-0.43708 1.961743,-0.93802 2.796948,-1.11321 1.366881,-0.28671 1.769926,-0.25456 4.035301,0.32185 2.126681,0.54113 2.64619,0.59152 3.351917,0.32514 0.909958,-0.34348 1.395381,-0.13185 1.668028,0.72719 0.08324,0.26225 0.5126,0.62646 0.954144,0.80935 0.590746,0.24469 0.710729,0.39308 0.454222,0.56176 -0.191721,0.12607 -4.667044,0.20718 -9.945161,0.18025 -8.422876,-0.043 -9.720437,-0.10442 -10.609305,-0.50238 z"
         id="path12680" />
      <path
         style="fill:#b9babe;stroke-width:0.264583"
         d="m 35.302631,128.80012 c -0.868642,-0.1767 -2.336332,-1.40054 -2.037709,-1.69917 0.09201,-0.092 0.439613,0.0234 0.772444,0.25657 0.332832,0.23312 0.730988,0.42386 0.884792,0.42386 0.184346,0 0.27699,-1.34796 0.271857,-3.9555 -0.0048,-2.45122 0.09919,-4.06248 0.2735,-4.2368 0.198671,-0.19869 0.538688,-0.19158 1.157696,0.0242 l 0.876411,0.30552 -0.16773,1.74847 c -0.398228,4.15127 -0.446571,5.73434 -0.186709,6.1141 0.464982,0.67953 3.769746,0.43667 5.671516,-0.4168 1.900464,-0.85287 4.236537,-0.95142 5.86128,-0.24727 0.582083,0.25228 1.772708,0.48489 2.645833,0.51692 0.907627,0.0333 2.097405,0.28763 2.778125,0.59387 l 1.190625,0.53562 -0.880923,0.19593 c -1.039831,0.23127 -17.880893,0.0907 -19.111008,-0.15953 z m -2.485754,-5.55088 c -0.08932,-0.63602 0.0057,-3.95437 0.211252,-7.37411 0.371628,-6.18416 0.378406,-6.22734 1.256514,-8.00364 0.485579,-0.98227 0.992801,-1.78594 1.127161,-1.78594 0.143905,0 0.169343,0.82706 0.0619,2.0127 -0.100312,1.10698 -0.236066,4.17284 -0.301676,6.81302 -0.114888,4.62319 -0.150052,4.87842 -0.952975,6.91699 -0.458527,1.16416 -0.925058,2.22032 -1.036737,2.34702 -0.111679,0.1267 -0.276128,-0.29002 -0.365443,-0.92604 z"
         id="path12678" />
      <path
         style="fill:#b5b8bc;stroke-width:0.264583"
         d="m 37.9031,128.85528 c -3.221271,-0.14139 -3.399959,-0.17932 -4.087011,-0.86744 -0.827195,-0.82849 -0.676107,-1.25887 0.221277,-0.63032 0.821931,0.5757 1.545739,0.5433 1.545739,-0.0692 0,-0.27118 -0.12621,-1.13438 -0.280466,-1.91823 -0.159472,-0.81035 -0.206297,-2.36685 -0.108541,-3.60799 0.17099,-2.17092 0.175945,-2.18281 0.909528,-2.18281 1.335826,0 1.438549,0.43569 0.935076,3.96602 -0.522612,3.66453 -0.434799,4.36745 0.577341,4.62148 1.09466,0.27475 4.555191,-0.13402 5.757392,-0.68008 1.416436,-0.64336 3.625808,-0.6313 5.507542,0.0301 0.857999,0.30156 2.183821,0.52917 3.082459,0.52917 0.867287,0 1.912059,0.13217 2.321714,0.29372 0.692066,0.27291 0.707343,0.30908 0.215662,0.51057 -0.579129,0.23732 -11.231881,0.24054 -16.597712,0.005 z m -5.064315,-5.6182 c -0.09064,-0.48381 0.0031,-3.7495 0.208267,-7.25709 l 0.37306,-6.37744 0.907669,-1.80044 c 0.499218,-0.99024 0.983965,-1.67699 1.077216,-1.52611 0.09325,0.15088 0.05486,2.04499 -0.08531,4.20913 -0.140169,2.16414 -0.257305,5.12767 -0.260303,6.58564 -0.0048,2.35812 -0.09628,2.86942 -0.827955,4.63021 -1.020865,2.45671 -1.18605,2.63891 -1.392647,1.5361 z"
         id="path12676" />
      <path
         style="fill:#b2b5ba;stroke-width:0.264583"
         d="m 38.71868,128.85292 c -3.574358,-0.1256 -4.21647,-0.21441 -4.696354,-0.64953 -0.845807,-0.7669 -0.666581,-0.97167 0.4363,-0.49848 1.49529,0.64155 7.28326,0.61352 9.683677,-0.0469 1.723021,-0.47405 1.905546,-0.47707 3.704167,-0.0613 1.040513,0.24054 2.851501,0.47856 4.024418,0.52892 2.350306,0.10091 3.34538,0.43219 2.230382,0.74253 -0.751588,0.20919 -9.234541,0.20077 -15.38259,-0.0153 z m -3.134076,-3.58114 c -0.156658,-0.41204 -0.250847,-1.83164 -0.209311,-3.15467 0.06835,-2.17702 0.125967,-2.41275 0.606607,-2.48165 0.292097,-0.0419 0.746661,0.0815 1.010141,0.27416 0.457144,0.33427 0.459343,0.46482 0.04807,2.85426 -0.490818,2.85156 -0.994731,3.71983 -1.455503,2.5079 z m -2.75392,-2.57059 c -0.09495,-0.63317 -0.05628,-1.97288 0.08594,-2.97713 0.14222,-1.00425 0.211968,-1.90133 0.154997,-1.99351 -0.05697,-0.0922 7.14e-4,-1.92382 0.128208,-4.07031 0.210807,-3.54941 0.305893,-4.06106 1.050348,-5.65193 0.458351,-0.97947 0.914112,-1.64186 1.035704,-1.50526 0.119431,0.13418 0.125804,1.73224 0.01416,3.55125 -0.111642,1.81901 -0.212688,4.67876 -0.224547,6.35501 -0.01969,2.78273 -0.09307,3.21982 -0.844067,5.02708 -0.452379,1.08865 -0.913768,2.07762 -1.025309,2.1977 -0.111541,0.12008 -0.280489,-0.29973 -0.375439,-0.9329 z"
         id="path12674" />
      <path
         style="fill:#adb2b8;stroke-width:0.264583"
         d="m 40.041908,128.83972 c -4.890966,-0.11844 -5.521319,-0.18508 -6.019271,-0.63633 -0.783656,-0.71014 -0.691109,-1.03283 0.171405,-0.59765 0.645078,0.32548 2.958627,0.7302 4.431771,0.77527 0.291042,0.009 2.13651,-0.12031 4.101041,-0.28714 2.448879,-0.20796 4.320539,-0.22306 5.953125,-0.048 1.309687,0.14042 3.058832,0.25742 3.886989,0.26001 2.464433,0.008 2.1276,0.5295 -0.365645,0.56644 -1.209135,0.0179 -3.210459,0.0477 -4.447386,0.0661 -1.236927,0.0185 -4.70734,-0.026 -7.712029,-0.0987 z m -4.330716,-4.24014 c -0.288593,-0.46695 -0.469625,-3.07192 -0.282719,-4.06821 0.191419,-1.02035 0.734705,-1.23853 1.547234,-0.62134 0.393617,0.29898 0.400552,0.50849 0.07225,2.18281 -0.525751,2.68131 -0.85143,3.29203 -1.336768,2.50674 z m -2.87809,-2.3905 c -0.09449,-0.59091 -0.09949,-1.19139 -0.0111,-1.3344 0.08838,-0.14301 0.259155,-2.66587 0.379491,-5.60635 0.212702,-5.19751 0.241601,-5.39603 1.038254,-7.13226 0.450704,-0.98227 0.895729,-1.78594 0.988946,-1.78594 0.09322,0 0.07321,1.9943 -0.04445,4.43177 -0.117664,2.43748 -0.18574,5.30709 -0.15128,6.37692 0.054,1.6766 -0.05646,2.23367 -0.80014,4.0349 -0.474537,1.14936 -0.944947,2.08975 -1.045356,2.08975 -0.100408,0 -0.259871,-0.48348 -0.354362,-1.07439 z"
         id="path12672" />
      <path
         style="fill:#a6abb2;stroke-width:0.264583"
         d="m 34.745967,128.53978 c -0.982695,-0.35992 -1.232453,-1.04509 -0.267318,-0.73334 0.389169,0.12571 1.273128,0.29785 1.964351,0.38255 0.691224,0.0847 1.256771,0.26575 1.256771,0.40235 0,0.31987 -2.036781,0.28431 -2.953804,-0.0516 z m 5.29561,-0.0308 c 0.441931,-0.44161 13.165181,-0.4077 13.609149,0.0363 0.216226,0.21622 -1.596527,0.29446 -6.82283,0.29446 -5.693963,0 -7.051103,-0.0661 -6.786319,-0.33073 z M 35.708672,122.954 c -0.231985,-0.92431 -0.03818,-3.1863 0.282007,-3.29144 0.151405,-0.0497 0.506119,0.0784 0.788254,0.2847 0.487102,0.35618 0.493234,0.45213 0.121593,1.90262 -0.42127,1.64418 -0.936509,2.12149 -1.191854,1.10412 z m -2.668354,-3.40295 c 0.09633,-1.94899 0.239294,-4.91284 0.317696,-6.58633 0.126388,-2.69775 0.235975,-3.23769 0.966614,-4.7625 1.065192,-2.22302 1.143901,-1.80811 0.740366,3.90271 -0.167841,2.37528 -0.228139,4.83234 -0.133997,5.46013 0.139667,0.93136 0.01615,1.51381 -0.671186,3.16485 -0.463295,1.11289 -0.966619,2.10023 -1.118497,2.1941 -0.189821,0.11731 -0.221392,-0.93707 -0.100996,-3.37296 z"
         id="path12670" />
      <path
         style="fill:#a2a7ad;stroke-width:0.264583"
         d="m 34.921646,128.42692 c -0.436562,-0.21392 -0.575652,-0.32761 -0.309089,-0.25265 0.266563,0.075 0.951173,0.13628 1.521354,0.13628 0.570181,0 1.036694,0.11906 1.036694,0.26458 0,0.38833 -1.333279,0.30046 -2.248959,-0.14821 z m 5.953125,0.17899 c 0,-0.38787 5.137362,-0.46967 8.970182,-0.14283 l 3.597526,0.30677 -6.283854,0.0349 c -3.487833,0.0194 -6.283854,-0.0691 -6.283854,-0.19887 z m -7.846975,-8.29901 c 0.08981,-1.20054 0.239721,-3.96875 0.333129,-6.15156 0.17267,-4.03503 0.625726,-5.9778 1.635076,-7.01146 0.341093,-0.3493 0.368724,-0.22245 0.230526,1.05834 -0.08636,0.80036 -0.23067,3.59833 -0.320689,6.2177 -0.149297,4.34425 -0.22486,4.90773 -0.860411,6.41615 -0.383208,0.9095 -0.805683,1.65365 -0.938834,1.65365 -0.140033,0 -0.173252,-0.92021 -0.0788,-2.18282 z m 2.7761,1.14079 c -0.126691,-1.32848 -0.02723,-1.60381 0.579392,-1.60381 0.704721,0 0.792928,0.28539 0.475153,1.53732 -0.358026,1.41052 -0.922974,1.44614 -1.054545,0.0665 z"
         id="path12668" />
      <path
         style="fill:#9ba2a9;stroke-width:0.264583"
         d="m 42.065396,128.57513 c -0.21574,-0.34907 6.206721,-0.34907 6.746875,0 0.267357,0.17278 -0.742103,0.2578 -3.093239,0.26053 -2.045912,0.002 -3.557779,-0.10543 -3.653636,-0.26053 z m -6.675693,-0.18335 c 0.257431,-0.0671 0.614618,-0.0627 0.79375,0.01 0.179131,0.0725 -0.03149,0.12736 -0.468057,0.12197 -0.436562,-0.005 -0.583124,-0.0647 -0.325693,-0.13177 z m -2.34248,-7.42342 c 0.09231,-0.5457 0.261694,-3.3139 0.376398,-6.15156 0.199128,-4.92622 0.241231,-5.21916 0.931649,-6.48229 l 0.723097,-1.32292 -0.197448,3.96875 c -0.108596,2.18281 -0.167032,4.86172 -0.129857,5.95313 0.05792,1.70028 -0.03617,2.20217 -0.657165,3.50572 -0.831483,1.74539 -1.291786,1.97811 -1.046674,0.52917 z m 2.975309,0.6108 c -0.09616,-0.2506 -0.174844,-0.75229 -0.174844,-1.11486 0,-0.48506 0.122327,-0.6359 0.463021,-0.57097 0.589287,0.11232 0.724252,0.99599 0.250975,1.64324 -0.338048,0.46231 -0.376912,0.46538 -0.539152,0.0426 z"
         id="path12666" />
      <path
         style="fill:#949ba3;stroke-width:0.264583"
         d="m 33.210112,120.7518 c -0.0099,-0.97764 0.69939,-3.46931 1.049194,-3.6855 0.330608,-0.20432 0.629132,1.03076 0.431534,1.78539 -0.08573,0.32743 -0.452113,1.07157 -0.814175,1.65365 l -0.658295,1.05833 z m 2.829503,-0.0988 c -0.159109,-0.60843 -0.004,-0.82187 0.46616,-0.64146 0.189266,0.0726 0.282015,0.35965 0.207857,0.64323 -0.171931,0.65747 -0.50185,0.6566 -0.674017,-0.002 z m -2.474714,-7.81533 c 0.119919,-2.42736 0.268407,-3.26443 0.739217,-4.16719 0.419663,-0.80468 0.617823,-0.99659 0.688806,-0.66708 0.179578,0.83363 -0.465653,7.15309 -0.767479,7.51677 -0.679589,0.81886 -0.807799,0.29819 -0.660544,-2.6825 z"
         id="path12664" />
      <path
         style="fill:#8d969e;stroke-width:0.264583"
         d="m 33.473377,119.91003 c 0.0038,-0.25466 0.232303,-0.93927 0.507749,-1.52136 0.479282,-1.01283 0.501731,-1.02649 0.522228,-0.31759 0.01975,0.68307 -0.621223,2.30197 -0.911419,2.30197 -0.06902,0 -0.122375,-0.20836 -0.118558,-0.46302 z m 0.348572,-8.21287 c 0.09428,-1.30275 0.322956,-2.42802 0.56308,-2.77085 0.385521,-0.55041 0.40379,-0.51607 0.392803,0.73839 -0.01523,1.73887 -0.374447,3.53224 -0.784505,3.91661 -0.262861,0.24639 -0.297782,-0.13754 -0.171378,-1.88415 z"
         id="path12662" />
    </g>
    <text
       xml:space="preserve"
       style="font-style:normal;font-variant:normal;font-weight:normal;font-stretch:normal;font-size:14.9261px;line-height:1.25;font-family:'Droid Sans Mono';-inkscape-font-specification:'Droid Sans Mono';fill:#778087;fill-opacity:1;stroke:none;stroke-width:0.264582"
       x="33.88303"
       y="137.28091"
       id="text20573"
       transform="scale(1.1869108,0.84252331)"><tspan
         sodipodi:role="line"
         style="font-style:normal;font-variant:normal;font-weight:normal;font-stretch:normal;font-family:'Droid Sans Mono';-inkscape-font-specification:'Droid Sans Mono';stroke-width:0.264582;fill:#778087;fill-opacity:1"
         x="33.88303"
         y="137.28091"
         id="tspan21501">K</tspan></text>
    <path
       id="text32091"
       style="font-style:normal;font-weight:normal;font-size:10.5833px;line-height:1.25;font-family:sans-serif;fill:#778087;fill-opacity:1;stroke:none;stroke-width:0.264582"
       d="m 54.693751,117.06246 -0.04624,-3.3e-4 c 0.01455,0.009 0.03085,0.0189 0.0462,0.0284 z m -3.602662,-6.2e-4 -9.254558,-0.002 -4.32e-4,0.95085 9.254558,0.002 z" />
  </g>
</svg>
